<svg width="944" height="764" viewBox="0 0 944 764" fill="none" xmlns="http://www.w3.org/2000/svg">
<path fill-rule="evenodd" clip-rule="evenodd" d="M186.219 1.0884C184.569 1.6274 181.644 2.5054 179.719 3.0404C173.788 4.6874 163.719 9.07241 163.719 10.0094C163.719 10.4974 162.819 10.8964 161.719 10.8964C160.619 10.8964 159.719 11.3464 159.719 11.8964C159.719 12.4464 159.044 12.8964 158.219 12.8964C157.394 12.8964 156.719 13.3464 156.719 13.8964C156.719 14.4464 156.044 14.8964 155.219 14.8964C154.394 14.8964 153.719 15.3464 153.719 15.8964C153.719 16.4464 153.253 16.8964 152.683 16.8964C152.114 16.8964 150.651 17.8004 149.433 18.9064C141.039 26.5254 138.719 28.8454 138.719 29.6224C138.719 30.1084 137.147 32.2814 135.225 34.4514C129.852 40.5184 129.719 40.7094 129.719 42.3544C129.719 43.2024 129.381 43.9004 128.969 43.9044C127.954 43.9144 125.719 48.8614 125.719 51.0954C125.719 52.0864 125.269 52.8964 124.719 52.8964C124.169 52.8964 123.719 54.0214 123.719 55.3964C123.719 56.7714 123.269 57.8964 122.719 57.8964C122.169 57.8964 121.719 59.4444 121.719 61.3374C121.719 63.2304 121.324 65.0224 120.84 65.3214C117.891 67.1444 117.907 103.658 120.858 105.482C121.332 105.775 121.719 107.337 121.719 108.955C121.719 110.573 122.169 111.896 122.719 111.896C123.269 111.896 123.719 113.246 123.719 114.896C123.719 116.546 124.169 117.896 124.719 117.896C125.269 117.896 125.719 118.769 125.719 119.837C125.719 120.905 126.169 122.056 126.719 122.396C127.269 122.736 127.719 123.887 127.719 124.955C127.719 126.023 128.139 126.896 128.652 126.896C129.165 126.896 129.853 127.743 130.181 128.777C130.51 129.812 131.553 131.575 132.499 132.696C133.445 133.817 135.119 135.989 136.219 137.524C139.466 142.055 151.143 153.273 154.3 154.896C155.906 155.721 157.814 156.959 158.54 157.646C159.267 158.333 160.211 158.896 160.637 158.896C161.064 158.896 162.451 159.796 163.719 160.896C164.987 161.996 166.856 162.896 167.872 162.896C168.888 162.896 169.719 163.346 169.719 163.896C169.719 164.446 170.844 164.896 172.219 164.896C173.594 164.896 174.719 165.346 174.719 165.896C174.719 166.446 176.069 166.896 177.719 166.896C179.369 166.896 180.719 167.346 180.719 167.896C180.719 168.446 182.969 168.896 185.719 168.896C188.469 168.896 190.719 169.346 190.719 169.896C190.719 170.515 196.052 170.896 204.719 170.896C213.386 170.896 218.719 170.515 218.719 169.896C218.719 169.346 220.744 168.896 223.219 168.896C225.694 168.896 227.719 168.446 227.719 167.896C227.719 167.346 229.069 166.896 230.719 166.896C232.369 166.896 233.719 166.446 233.719 165.896C233.719 165.346 234.441 164.896 235.323 164.896C237.448 164.896 250.719 157.894 250.719 156.772C250.719 156.29 251.327 155.896 252.071 155.896C252.814 155.896 254.835 154.546 256.562 152.896C258.288 151.246 259.904 149.896 260.153 149.896C260.636 149.896 269.119 141.067 273.238 136.278C274.601 134.693 275.717 132.834 275.718 132.146C275.718 131.459 276.169 130.896 276.719 130.896C277.269 130.896 277.719 129.996 277.719 128.896C277.719 127.796 278.169 126.896 278.719 126.896C279.269 126.896 279.719 126.221 279.719 125.396C279.719 124.571 280.169 123.896 280.719 123.896C281.269 123.896 281.719 123.023 281.719 121.955C281.719 120.887 282.169 119.736 282.719 119.396C283.269 119.056 283.719 117.68 283.719 116.337C283.719 114.994 284.118 113.896 284.606 113.896C285.523 113.896 285.655 113.409 288.146 100.896C289.893 92.1254 290.146 78.4344 288.704 70.7824C287.368 63.6964 283.54 51.4854 282.522 51.0634C282.081 50.8794 281.719 49.8674 281.719 48.8134C281.719 47.7584 281.269 46.8964 280.719 46.8964C280.169 46.8964 279.719 45.9964 279.719 44.8964C279.719 43.7964 279.269 42.8964 278.719 42.8964C278.169 42.8964 277.719 42.2214 277.719 41.3964C277.719 40.5714 277.269 39.8964 276.719 39.8964C276.169 39.8964 275.719 39.2014 275.719 38.3514C275.719 37.5014 274.707 35.7314 273.469 34.4184C272.231 33.1044 269.564 30.0874 267.541 27.7134C265.518 25.3394 262.99 22.3844 261.923 21.1464C260.857 19.9084 259.349 18.8964 258.572 18.8964C257.796 18.8964 256.512 17.9964 255.719 16.8964C254.926 15.7964 253.702 14.8964 252.998 14.8964C252.295 14.8964 251.719 14.4464 251.719 13.8964C251.719 13.3464 251.082 12.8964 250.302 12.8964C249.523 12.8964 248.736 12.5404 248.552 12.1064C247.667 10.0074 227.75 1.8964 223.483 1.8964C221.963 1.8964 220.719 1.4464 220.719 0.896401C220.719 -0.409599 190.289 -0.239598 186.219 1.0884ZM216.719 34.8964C216.719 35.4464 218.069 35.8964 219.719 35.8964C221.369 35.8964 222.719 36.3464 222.719 36.8964C222.719 37.4464 223.844 37.8964 225.219 37.8964C226.594 37.8964 227.719 38.2364 227.719 38.6524C227.719 39.0684 228.988 39.9704 230.54 40.6564C234.355 42.3454 245.719 53.3074 245.719 55.2994C245.719 56.1774 246.086 56.8964 246.535 56.8964C247.699 56.8964 251.291 63.5644 253.275 69.4084C255.178 75.0144 255.646 96.1934 253.939 99.5024C253.402 100.544 251.699 104.209 250.157 107.646C248.614 111.084 247.039 113.896 246.656 113.896C246.274 113.896 245.437 115.134 244.795 116.646C244.154 118.158 242.271 120.521 240.611 121.896C238.952 123.271 236.517 125.408 235.202 126.646C233.886 127.884 232.339 128.896 231.764 128.896C231.189 128.896 230.719 129.346 230.719 129.896C230.719 130.446 229.819 130.896 228.719 130.896C227.619 130.896 226.719 131.248 226.719 131.678C226.719 132.108 224.582 133.037 221.969 133.744C219.356 134.451 216.438 135.449 215.483 135.962C213.144 137.22 194.002 137.163 193.219 135.896C192.879 135.346 191.278 134.896 189.66 134.896C188.042 134.896 186.719 134.446 186.719 133.896C186.719 133.346 185.819 132.896 184.719 132.896C183.619 132.896 182.719 132.446 182.719 131.896C182.719 131.346 181.594 130.896 180.219 130.896C178.844 130.896 177.719 130.446 177.719 129.896C177.719 129.346 177.274 128.896 176.73 128.896C175.022 128.896 163.719 118.732 163.719 117.195C163.719 116.723 162.819 115.689 161.719 114.896C160.619 114.103 159.719 112.654 159.719 111.675C159.719 110.697 159.269 109.896 158.719 109.896C158.169 109.896 157.719 109.071 157.719 108.063C157.719 107.054 157.411 105.921 157.034 105.544C155.207 103.718 153.578 96.4754 153.039 87.7884C152.565 80.1314 152.808 76.9824 154.238 72.2884C155.225 69.0474 156.412 65.9684 156.876 65.4464C157.34 64.9244 157.719 63.6864 157.719 62.6964C157.719 61.7064 158.169 60.8964 158.719 60.8964C159.269 60.8964 159.719 60.0954 159.719 59.1174C159.719 58.1384 160.619 56.6894 161.719 55.8964C162.819 55.1034 163.719 53.8274 163.719 53.0604C163.719 51.4934 169.78 45.6084 173.969 43.1074C175.481 42.2044 176.719 41.1124 176.719 40.6804C176.719 40.2494 177.619 39.8964 178.719 39.8964C179.819 39.8964 180.719 39.4464 180.719 38.8964C180.719 38.3464 181.619 37.8964 182.719 37.8964C183.819 37.8964 184.719 37.4464 184.719 36.8964C184.719 36.3464 186.069 35.8964 187.719 35.8964C189.369 35.8964 190.719 35.4464 190.719 34.8964C190.719 34.2814 195.719 33.8964 203.719 33.8964C211.719 33.8964 216.719 34.2814 216.719 34.8964ZM504.969 48.6964C503.181 48.8764 501.719 49.4444 501.719 49.9594C501.719 50.4754 500.819 50.8964 499.719 50.8964C498.619 50.8964 497.719 51.3464 497.719 51.8964C497.719 52.4464 497.257 52.8964 496.693 52.8964C495.599 52.8964 486.719 61.4164 486.719 62.4654C486.719 62.8074 485.81 64.3644 484.699 65.9244C482.285 69.3154 478.773 79.4564 477.61 86.3964C477.149 89.1464 476.492 93.0304 476.15 95.0284C475.771 97.2394 475.956 98.9254 476.623 99.3374C477.226 99.7094 477.719 100.85 477.719 101.871C477.719 104.9 484.913 111.896 488.027 111.896C489.508 111.896 490.719 112.346 490.719 112.896C490.719 113.446 491.619 113.896 492.719 113.896C493.819 113.896 494.719 113.446 494.719 112.896C494.719 112.346 496.081 111.896 497.746 111.896C500.97 111.896 507.719 106.712 507.719 104.235C507.719 103.499 508.169 102.896 508.719 102.896C509.275 102.896 509.719 100.229 509.719 96.8964C509.719 93.5634 510.163 90.8964 510.719 90.8964C511.269 90.8964 511.719 89.5464 511.719 87.8964C511.719 86.2464 512.169 84.8964 512.719 84.8964C513.269 84.8964 513.719 84.3284 513.719 83.6334C513.719 82.9394 514.914 81.4764 516.374 80.3834C521.409 76.6154 524.719 73.0894 524.719 71.4954C524.719 70.6154 525.169 69.8964 525.719 69.8964C526.269 69.8964 526.719 67.6734 526.719 64.9554C526.719 62.2374 526.269 59.7364 525.719 59.3964C525.169 59.0564 524.719 58.0974 524.719 57.2664C524.719 55.7164 522.42 52.8964 521.158 52.8964C520.77 52.8964 519.726 52.0644 518.836 51.0474C517.166 49.1384 510.987 48.0904 504.969 48.6964ZM412.719 49.8964C412.719 50.4464 412.012 50.8964 411.148 50.8964C408.298 50.8964 405.031 55.5814 403.668 61.6204C402.359 67.4274 404.289 72.6074 409.744 77.9204C412.48 80.5864 414.719 83.0804 414.719 83.4644C414.719 83.8474 415.51 84.8894 416.476 85.7794C417.442 86.6684 418.868 88.6344 419.645 90.1464C420.421 91.6584 421.431 92.8964 421.888 92.8964C422.345 92.8964 422.719 93.3904 422.719 93.9954C422.719 95.0684 424.973 100.664 426.803 104.132C427.307 105.087 427.719 107.648 427.719 109.823C427.719 111.998 428.156 114.048 428.691 114.378C429.239 114.718 429.58 119.509 429.474 125.382C429.299 135.003 429.452 135.93 431.502 137.708C432.721 138.765 433.719 140.051 433.719 140.564C433.719 141.835 442.254 145.896 444.925 145.896C451.199 145.896 459.738 139.704 461.472 133.896C462.646 129.968 462.139 106.882 460.77 101.896C460.09 99.4214 459.301 95.9334 459.017 94.1464C458.733 92.3594 458.099 90.8964 457.61 90.8964C457.12 90.8964 456.719 90.0234 456.719 88.9554C456.719 87.8874 456.269 86.7364 455.719 86.3964C455.169 86.0564 454.719 84.9054 454.719 83.8374C454.719 82.7694 454.269 81.8964 453.719 81.8964C453.169 81.8964 452.719 80.9964 452.719 79.8964C452.719 78.7964 452.269 77.8964 451.719 77.8964C451.169 77.8964 450.719 76.9964 450.719 75.8964C450.719 74.7964 450.299 73.8964 449.786 73.8964C449.273 73.8964 448.569 72.9994 448.221 71.9024C447.873 70.8054 447.055 69.3424 446.403 68.6514C445.752 67.9594 443.423 65.1444 441.228 62.3954C435.746 55.5294 433.045 52.8964 431.485 52.8964C430.757 52.8964 429.512 51.9964 428.719 50.8964C427.505 49.2114 426.13 48.8964 419.998 48.8964C415.812 48.8964 412.719 49.3214 412.719 49.8964ZM704.219 80.8614C703.119 81.3174 699.294 82.5024 695.719 83.4954C692.144 84.4884 688.994 85.5904 688.719 85.9444C688.444 86.2984 687.013 86.8834 685.539 87.2444C684.065 87.6044 682.185 88.5734 681.36 89.3984C680.536 90.2224 679.155 90.8964 678.29 90.8964C677.426 90.8964 676.719 91.3464 676.719 91.8964C676.719 92.4464 676.044 92.8964 675.219 92.8964C674.394 92.8964 673.719 93.3464 673.719 93.8964C673.719 94.4464 673.032 94.8964 672.193 94.8964C671.353 94.8964 668.605 96.8734 666.086 99.2894C663.567 101.706 661.086 104.068 660.574 104.539C656.355 108.416 650.719 115.207 650.719 116.414C650.719 117.229 650.269 117.896 649.719 117.896C649.169 117.896 648.719 118.571 648.719 119.396C648.719 120.221 648.269 120.896 647.719 120.896C647.169 120.896 646.719 121.571 646.719 122.396C646.719 123.221 646.269 123.896 645.719 123.896C645.169 123.896 644.719 125.021 644.719 126.396C644.719 127.771 644.269 128.896 643.719 128.896C643.169 128.896 642.719 129.796 642.719 130.896C642.719 131.996 642.269 132.896 641.719 132.896C641.169 132.896 640.719 133.802 640.719 134.91C640.719 136.017 640.329 137.705 639.853 138.66C636.22 145.945 634.423 169.327 636.684 179.896C637.331 182.921 638.103 186.858 638.399 188.646C638.696 190.434 639.339 191.896 639.828 191.896C640.318 191.896 640.719 193.246 640.719 194.896C640.719 196.546 641.169 197.896 641.719 197.896C642.269 197.896 642.719 199.021 642.719 200.396C642.719 201.771 643.169 202.896 643.719 202.896C644.269 202.896 644.719 203.796 644.719 204.896C644.719 205.996 645.114 206.896 645.598 206.896C646.081 206.896 647.036 208.246 647.719 209.896C648.402 211.546 649.357 212.896 649.84 212.896C650.324 212.896 650.719 213.343 650.719 213.888C650.719 214.434 651.732 216.075 652.969 217.535C656.749 221.994 668.584 233.896 669.237 233.896C669.576 233.896 671.327 235.021 673.13 236.396C674.933 237.771 676.928 238.896 677.563 238.896C678.199 238.896 678.719 239.346 678.719 239.896C678.719 240.446 679.619 240.896 680.719 240.896C681.819 240.896 682.719 241.346 682.719 241.896C682.719 242.446 683.619 242.896 684.719 242.896C685.819 242.896 686.719 243.346 686.719 243.896C686.719 244.446 687.844 244.896 689.219 244.896C690.594 244.896 691.719 245.346 691.719 245.896C691.719 246.446 693.069 246.896 694.719 246.896C696.369 246.896 697.719 247.346 697.719 247.896C697.719 248.446 699.969 248.896 702.719 248.896C705.469 248.896 707.719 249.346 707.719 249.896C707.719 250.513 712.866 250.896 721.16 250.896C729.042 250.896 734.857 250.482 735.219 249.896C735.559 249.346 737.61 248.896 739.778 248.896C741.946 248.896 743.719 248.446 743.719 247.896C743.719 247.346 745.294 246.896 747.219 246.896C749.144 246.896 750.719 246.446 750.719 245.896C750.719 245.346 751.409 244.896 752.252 244.896C753.965 244.896 760.719 238.541 760.719 236.929C760.719 236.361 761.169 235.896 761.719 235.896C762.275 235.896 762.719 233.229 762.719 229.896C762.719 226.563 762.275 223.896 761.719 223.896C761.169 223.896 760.719 223.224 760.719 222.404C760.719 220.222 756.732 215.996 753.005 214.228C749.564 212.594 744.747 212.792 736.719 214.897C726.394 217.604 703.719 216.822 703.719 213.759C703.719 213.285 702.369 212.896 700.719 212.896C699.069 212.896 697.719 212.446 697.719 211.896C697.719 211.346 697.044 210.896 696.219 210.896C695.394 210.896 694.719 210.446 694.719 209.896C694.719 209.346 694.019 208.896 693.164 208.896C690.641 208.896 676.719 194.071 676.719 191.385C676.719 190.566 676.352 189.896 675.904 189.896C674.799 189.896 671.719 183.291 671.719 180.921C671.719 179.872 671.269 178.736 670.719 178.396C670.136 178.035 669.719 172.386 669.719 164.837C669.719 156.876 670.104 151.896 670.719 151.896C671.269 151.896 671.719 150.828 671.719 149.522C671.719 147.137 676.421 137.686 677.918 137.063C678.359 136.879 678.719 136.163 678.719 135.472C678.719 132.05 695.994 117.896 700.171 117.896C701.022 117.896 701.719 117.446 701.719 116.896C701.719 116.346 703.069 115.896 704.719 115.896C706.369 115.896 707.719 115.446 707.719 114.896C707.719 114.279 712.886 113.896 721.219 113.896C729.552 113.896 734.719 114.279 734.719 114.896C734.719 115.446 735.632 115.896 736.748 115.896C740.762 115.896 750.358 121.828 757.469 128.706C761.456 132.563 764.719 136.433 764.719 137.307C764.719 138.181 765.117 138.896 765.603 138.896C766.593 138.896 769.982 147.039 771.846 153.896C772.519 156.371 773.103 164.433 773.144 171.812C773.199 181.601 773.557 185.341 774.469 185.646C775.157 185.875 775.719 186.925 775.719 187.979C775.719 189.229 776.415 189.896 777.719 189.896C778.819 189.896 779.723 190.233 779.727 190.646C779.743 192.181 785.282 193.896 790.223 193.896C794.63 193.896 795.834 193.433 799.024 190.511C801.056 188.649 802.719 186.399 802.719 185.511C802.719 184.623 803.169 183.896 803.719 183.896C804.269 183.896 804.719 182.861 804.719 181.596C804.719 180.331 805.195 178.82 805.777 178.238C806.461 177.554 806.67 172.63 806.369 164.288C805.858 150.132 804.986 143.179 803.613 142.331C803.121 142.027 802.719 140.455 802.719 138.837C802.719 137.219 802.269 135.896 801.719 135.896C801.169 135.896 800.719 134.771 800.719 133.396C800.719 132.021 800.269 130.896 799.719 130.896C799.169 130.896 798.719 129.996 798.719 128.896C798.719 127.796 798.269 126.896 797.719 126.896C797.169 126.896 796.709 126.108 796.697 125.146C796.685 124.184 795.795 122.271 794.719 120.896C793.643 119.521 792.753 118.04 792.741 117.604C792.71 116.492 791.271 114.853 782.636 106.091C774.168 97.4984 771.163 94.8964 769.708 94.8964C769.164 94.8964 768.719 94.4464 768.719 93.8964C768.719 93.3464 768.044 92.8964 767.219 92.8964C766.394 92.8964 765.719 92.4464 765.719 91.8964C765.719 91.3464 765.044 90.8964 764.219 90.8964C763.394 90.8964 762.719 90.4464 762.719 89.8964C762.719 89.3464 761.819 88.8964 760.719 88.8964C759.619 88.8964 758.719 88.4464 758.719 87.8964C758.719 87.3464 757.888 86.8964 756.873 86.8964C755.857 86.8964 753.558 86.1634 751.763 85.2684C744.301 81.5454 734.655 79.9294 720.219 79.9814C712.519 80.0094 705.319 80.4054 704.219 80.8614ZM359.719 129.896C359.719 130.446 357.919 130.896 355.719 130.896C353.519 130.896 351.719 131.346 351.719 131.896C351.719 132.446 350.632 132.896 349.302 132.896C347.973 132.896 346.736 133.233 346.552 133.646C346.369 134.059 344.194 135.5 341.719 136.85C339.244 138.2 336.212 140.225 334.98 141.35C328.655 147.129 327.748 147.896 327.246 147.896C326.946 147.896 325.288 149.246 323.562 150.896C321.835 152.546 319.995 153.896 319.472 153.896C318.949 153.896 317.328 155.153 315.87 156.688C314.412 158.224 311.419 160.81 309.219 162.435C307.019 164.06 304.026 166.629 302.568 168.143C301.11 169.657 299.378 170.896 298.719 170.896C298.06 170.896 296.328 172.135 294.87 173.649C293.412 175.163 290.419 177.732 288.219 179.357C286.019 180.982 283.026 183.568 281.568 185.104C280.11 186.639 278.378 187.896 277.719 187.896C277.06 187.896 275.26 189.246 273.719 190.896C272.178 192.546 270.651 193.896 270.325 193.896C269.595 193.896 265.481 197.348 261.154 201.591L257.896 204.786L244.058 205.355C236.446 205.669 217.507 206.164 201.969 206.455C185.036 206.772 173.719 207.367 173.719 207.94C173.719 208.49 169.049 208.896 162.719 208.896C156.052 208.896 151.719 209.29 151.719 209.896C151.719 210.446 149.694 210.896 147.219 210.896C144.744 210.896 142.719 211.346 142.719 211.896C142.719 212.446 141.369 212.896 139.719 212.896C138.069 212.896 136.719 213.346 136.719 213.896C136.719 214.446 136.116 214.896 135.379 214.896C134.642 214.896 130.704 216.718 126.629 218.944C122.553 221.17 118.432 223.248 117.469 223.56C116.506 223.873 115.719 224.527 115.719 225.013C115.719 225.498 115.044 225.896 114.219 225.896C113.394 225.896 112.719 226.346 112.719 226.896C112.719 227.446 112.274 227.896 111.73 227.896C109.927 227.896 105.609 231.879 97.2186 241.283C94.4686 244.366 90.7556 248.45 88.9686 250.358C87.1816 252.267 85.7186 254.09 85.7186 254.408C85.7186 254.726 84.7056 256.015 83.4686 257.272C81.2646 259.51 78.7276 262.574 73.7186 269.047C72.3436 270.823 70.2056 273.296 68.9686 274.541C67.7306 275.786 66.7186 277.066 66.7186 277.384C66.7186 277.702 65.2556 279.474 63.4686 281.322C61.6816 283.169 59.2276 285.966 58.0176 287.538C56.8066 289.11 53.9946 292.309 51.7676 294.648C49.5406 296.987 47.7186 299.384 47.7186 299.976C47.7186 300.568 46.0146 302.705 43.9326 304.724C41.8506 306.744 38.8136 310.196 37.1826 312.396C35.5526 314.596 32.5306 318.048 30.4686 320.068C28.4056 322.087 26.7186 324.214 26.7186 324.794C26.7186 325.374 24.4686 328.208 21.7186 331.091C18.9686 333.974 16.7186 336.673 16.7186 337.088C16.7186 337.504 14.6936 339.868 12.2186 342.343C9.74364 344.818 7.71864 347.53 7.71864 348.37C7.71864 349.209 7.26864 349.896 6.71864 349.896C6.16864 349.896 5.71864 350.769 5.71864 351.837C5.71864 352.905 5.26864 354.056 4.71864 354.396C4.16864 354.736 3.71864 355.887 3.71864 356.955C3.71864 358.023 3.31764 358.896 2.82764 358.896C0.501642 358.896 -1.00136 381.02 0.789639 388.896C1.47764 391.921 2.41864 394.823 2.87964 395.346C3.34064 395.868 3.71864 397.331 3.71864 398.596C3.71864 399.861 4.16864 400.896 4.71864 400.896C5.26864 400.896 5.71864 401.796 5.71864 402.896C5.71864 403.996 6.16864 404.896 6.71864 404.896C7.26864 404.896 7.71864 405.571 7.71864 406.396C7.71864 407.221 8.16864 407.896 8.71864 407.896C9.26864 407.896 9.71864 408.37 9.71864 408.95C9.71864 409.53 11.0666 411.443 12.7136 413.2C14.3616 414.958 15.7116 416.733 15.7136 417.146C15.7166 417.559 16.2286 417.896 16.8516 417.896C17.4746 417.896 18.7116 418.731 19.6016 419.751C21.9516 422.448 37.2866 429.524 43.8596 430.946C53.4236 433.014 69.4796 431.034 76.9546 426.864C77.9096 426.332 79.3726 425.896 80.2046 425.896C81.0376 425.896 81.7186 425.446 81.7186 424.896C81.7186 424.346 82.4106 423.896 83.2566 423.896C85.0166 423.896 102.719 406.726 102.719 405.019C102.719 404.402 103.169 403.896 103.719 403.896C104.269 403.896 104.719 403.426 104.719 402.851C104.719 401.713 109.22 396.896 110.283 396.896C110.643 396.896 110.643 398.584 110.282 400.646C109.921 402.709 109.379 406.421 109.076 408.896C108.773 411.371 108.119 413.824 107.622 414.346C107.125 414.868 106.719 417.231 106.719 419.596C106.719 421.961 106.269 423.896 105.719 423.896C105.169 423.896 104.719 426.371 104.719 429.396C104.719 432.421 104.269 434.896 103.719 434.896C103.169 434.896 102.719 436.209 102.719 437.813C102.719 439.417 102.382 440.879 101.969 441.063C101.557 441.246 100.465 443.421 99.5426 445.896C95.8356 455.85 95.1946 457.416 94.6326 457.896C94.3096 458.171 93.4376 460.487 92.6946 463.043C91.9516 465.598 90.7626 468.482 90.0536 469.452C88.8266 471.13 88.5116 471.132 83.4916 469.484C72.1176 465.752 55.8976 466.486 45.9166 471.184C43.3326 472.401 40.9936 473.622 40.7186 473.898C40.4436 474.173 38.9816 475.037 37.4686 475.817C35.9556 476.596 34.7186 477.608 34.7186 478.065C34.7186 478.522 34.0236 478.896 33.1736 478.896C31.4336 478.896 26.7186 483.245 26.7186 484.851C26.7186 485.426 26.3446 485.896 25.8876 485.896C25.4306 485.896 24.4186 487.133 23.6396 488.646C22.8596 490.159 21.9606 491.621 21.6416 491.896C21.0186 492.432 16.7006 500.78 14.9156 504.896C12.5016 510.464 11.7696 524.333 13.4906 531.896C15.1946 539.384 16.4366 542.659 19.8496 548.659C23.2326 554.607 36.0346 567.896 38.3806 567.896C39.1166 567.896 39.7186 568.346 39.7186 568.896C39.7186 569.446 40.6186 569.896 41.7186 569.896C42.8186 569.896 43.7186 570.346 43.7186 570.896C43.7186 571.446 44.6186 571.896 45.7186 571.896C46.8186 571.896 47.7186 572.346 47.7186 572.896C47.7186 573.446 49.2936 573.896 51.2186 573.896C53.1436 573.896 54.7186 574.346 54.7186 574.896C54.7186 575.446 56.2666 575.896 58.1596 575.896C60.0526 575.896 61.8786 576.346 62.2186 576.896C62.5586 577.446 64.1336 577.896 65.7186 577.896C67.3036 577.896 68.8786 578.346 69.2186 578.896C69.5586 579.446 70.7906 579.896 71.9566 579.896C74.2046 579.896 75.4587 580.232 88.4417 584.312C92.9647 585.733 97.5506 586.896 98.6326 586.896C99.7146 586.896 100.879 587.346 101.219 587.896C101.559 588.446 103.385 588.896 105.278 588.896C107.171 588.896 108.719 589.346 108.719 589.896C108.719 591.123 133.964 591.272 136.483 590.061C149.839 583.636 153.679 581.582 155.491 579.894C156.67 578.795 157.9 577.896 158.223 577.896C159.301 577.896 163.719 573.003 163.719 571.809C163.719 571.161 164.532 569.903 165.527 569.013C167.99 566.809 174.719 552.501 174.719 549.467C174.719 548.118 175.169 546.736 175.719 546.396C176.269 546.056 176.719 544.005 176.719 541.837C176.719 539.669 177.169 537.896 177.719 537.896C178.269 537.896 178.719 536.348 178.719 534.455C178.719 532.562 179.169 530.736 179.719 530.396C180.269 530.056 180.719 528.23 180.719 526.337C180.719 524.444 181.169 522.896 181.719 522.896C182.269 522.896 182.719 521.096 182.719 518.896C182.719 516.696 183.169 514.896 183.719 514.896C184.269 514.896 184.719 513.096 184.719 510.896C184.719 508.696 185.122 506.896 185.614 506.896C186.106 506.896 186.722 505.209 186.983 503.146C187.243 501.084 188.18 496.921 189.065 493.896C189.949 490.871 191.857 483.671 193.305 477.896C194.752 472.121 196.337 466.615 196.828 465.66C197.318 464.705 197.719 463.017 197.719 461.91C197.719 460.563 198.381 459.896 199.719 459.896C201.452 459.896 201.719 460.563 201.719 464.896C201.719 467.646 202.169 469.896 202.719 469.896C203.294 469.896 203.719 472.996 203.719 477.196C203.719 481.211 204.122 484.923 204.614 485.446C205.106 485.968 205.756 489.321 206.059 492.896C206.68 500.247 208.069 511.066 209.718 521.396C210.683 527.442 210.589 529.179 209.028 534.146C208.033 537.309 206.882 539.896 206.469 539.896C206.057 539.896 205.719 540.796 205.719 541.896C205.719 542.996 205.269 543.896 204.719 543.896C204.169 543.896 203.719 545.021 203.719 546.396C203.719 547.771 203.269 548.896 202.719 548.896C202.169 548.896 201.719 549.796 201.719 550.896C201.719 551.996 201.269 552.896 200.719 552.896C200.169 552.896 199.719 553.753 199.719 554.801C199.719 555.85 198.845 558.437 197.777 560.551C192.663 570.678 188.719 579.401 188.719 580.586C188.719 581.306 188.269 581.896 187.719 581.896C187.169 581.896 186.719 582.769 186.719 583.837C186.719 584.905 186.269 586.056 185.719 586.396C185.169 586.736 184.719 587.887 184.719 588.955C184.719 590.023 184.269 590.896 183.719 590.896C183.169 590.896 182.719 591.796 182.719 592.896C182.719 593.996 182.269 594.896 181.719 594.896C181.169 594.896 180.719 596.246 180.719 597.896C180.719 599.546 180.32 600.896 179.832 600.896C178.171 600.896 177.412 607.378 177.43 621.396C177.449 635.725 178.249 642.896 179.828 642.896C180.318 642.896 180.719 644.021 180.719 645.396C180.719 646.771 181.169 647.896 181.719 647.896C182.269 647.896 182.719 648.796 182.719 649.896C182.719 650.996 183.169 651.896 183.719 651.896C184.269 651.896 184.719 652.563 184.719 653.379C184.719 654.768 191.909 663.253 196.095 666.805C197.126 667.68 199.018 669.409 200.299 670.646C201.58 671.883 203.093 672.896 203.662 672.896C204.231 672.896 205.572 673.646 206.643 674.563C212.878 679.902 231.428 684.01 243.219 682.663C252.162 681.642 269.719 675.677 269.719 673.66C269.719 673.24 270.394 672.896 271.219 672.896C272.044 672.896 272.719 672.446 272.719 671.896C272.719 671.346 273.198 670.896 273.784 670.896C274.981 670.896 283.156 662.718 286.219 658.457C287.319 656.926 288.782 655.081 289.469 654.357C290.157 653.632 290.719 652.332 290.719 651.467C290.719 650.603 291.169 649.896 291.719 649.896C292.269 649.896 292.719 648.996 292.719 647.896C292.719 646.796 293.169 645.896 293.719 645.896C294.269 645.896 294.719 645.023 294.719 643.955C294.719 642.887 295.169 641.736 295.719 641.396C296.269 641.056 296.719 639.905 296.719 638.837C296.719 637.769 297.169 636.896 297.719 636.896C298.269 636.896 298.719 635.546 298.719 633.896C298.719 632.246 299.169 630.896 299.719 630.896C300.269 630.896 300.719 629.996 300.719 628.896C300.719 627.796 301.169 626.896 301.719 626.896C302.269 626.896 302.719 626.081 302.719 625.084C302.719 624.087 303.56 621.5 304.587 619.334C306.549 615.199 309.226 609.114 310.938 604.896C311.496 603.521 312.35 601.615 312.836 600.66C313.322 599.705 313.719 598.017 313.719 596.91C313.719 595.802 314.169 594.896 314.719 594.896C315.269 594.896 315.719 593.996 315.719 592.896C315.719 591.796 316.169 590.896 316.719 590.896C317.269 590.896 317.719 589.546 317.719 587.896C317.719 586.246 318.169 584.896 318.719 584.896C319.269 584.896 319.719 583.771 319.719 582.396C319.719 581.021 320.169 579.896 320.719 579.896C321.269 579.896 321.719 578.996 321.719 577.896C321.719 576.796 322.169 575.896 322.719 575.896C323.269 575.896 323.719 575.277 323.719 574.52C323.719 573.252 327.667 563.375 329.564 559.896C330.014 559.071 331.007 556.258 331.769 553.646C332.532 551.034 333.507 548.896 333.937 548.896C334.367 548.896 334.719 547.321 334.719 545.396C334.719 543.471 335.169 541.896 335.719 541.896C336.336 541.896 336.719 536.729 336.719 528.396C336.719 520.063 336.336 514.896 335.719 514.896C335.169 514.896 334.719 512.961 334.719 510.596C334.719 508.231 334.313 505.869 333.816 505.346C333.319 504.824 332.686 502.371 332.409 499.896C332.131 497.421 331.413 493.371 330.814 490.896C328.088 479.647 322.898 454.431 322.066 448.396C321.762 446.196 321.11 443.969 320.617 443.446C320.123 442.924 319.719 440.561 319.719 438.196C319.719 435.831 319.269 433.896 318.719 433.896C318.169 433.896 317.719 431.646 317.719 428.896C317.719 426.146 317.269 423.896 316.719 423.896C316.169 423.896 315.719 422.774 315.719 421.404C315.719 416.66 306.496 408.896 300.861 408.896C294.385 408.896 285.487 414.986 284.144 420.338C282.982 424.969 284.355 435.703 288.246 452.396C289.143 456.246 290.095 460.971 290.36 462.896C290.626 464.821 291.237 467.296 291.719 468.396C292.593 470.391 293.321 474.382 294.362 482.896C294.665 485.371 295.319 487.824 295.816 488.346C296.313 488.869 296.719 491.231 296.719 493.596C296.719 495.961 297.169 497.896 297.719 497.896C298.269 497.896 298.719 500.371 298.719 503.396C298.719 506.421 299.124 508.896 299.618 508.896C300.754 508.896 301.714 515.654 302.353 528.146C302.688 534.696 302.502 537.896 301.785 537.896C301.199 537.896 300.719 538.796 300.719 539.896C300.719 540.996 300.269 541.896 299.719 541.896C299.169 541.896 298.719 543.246 298.719 544.896C298.719 546.546 298.269 547.896 297.719 547.896C297.169 547.896 296.719 549.021 296.719 550.396C296.719 551.771 296.35 552.896 295.9 552.896C295.449 552.896 294.468 555.146 293.719 557.896C292.97 560.646 291.989 562.896 291.538 562.896C291.088 562.896 290.719 563.577 290.719 564.41C290.719 565.242 290.297 566.705 289.78 567.66C287.649 571.601 283.719 581.234 283.719 582.517C283.719 583.275 283.269 583.896 282.719 583.896C282.169 583.896 281.719 585.021 281.719 586.396C281.719 587.771 281.269 588.896 280.719 588.896C280.169 588.896 279.719 589.796 279.719 590.896C279.719 591.996 279.269 592.896 278.719 592.896C278.169 592.896 277.719 594.246 277.719 595.896C277.719 597.546 277.269 598.896 276.719 598.896C276.169 598.896 275.719 600.021 275.719 601.396C275.719 602.771 275.269 603.896 274.719 603.896C274.169 603.896 273.719 604.517 273.719 605.275C273.719 606.558 269.789 616.191 267.658 620.132C267.141 621.087 266.719 622.55 266.719 623.382C266.719 624.215 266.367 624.896 265.937 624.896C265.507 624.896 264.532 627.034 263.769 629.646C263.006 632.258 261.558 635.124 260.55 636.013C259.543 636.903 258.719 637.96 258.719 638.362C258.719 639.661 252.586 644.868 249.356 646.311C245.438 648.063 240.974 649.107 237.719 649.033C232.847 648.922 226.719 647.673 226.719 646.791C226.719 646.299 226.024 645.896 225.174 645.896C223.785 645.896 222.61 644.992 216.478 639.208C212.467 635.423 210.214 628.711 210.333 620.896C210.443 613.682 212.072 608.619 217.81 597.66C218.31 596.705 218.719 595.242 218.719 594.41C218.719 593.577 219.169 592.896 219.719 592.896C220.269 592.896 220.719 591.996 220.719 590.896C220.719 589.796 221.169 588.896 221.719 588.896C222.269 588.896 222.719 588.023 222.719 586.955C222.719 585.887 223.169 584.736 223.719 584.396C224.269 584.056 224.719 582.905 224.719 581.837C224.719 580.769 225.169 579.896 225.719 579.896C226.269 579.896 226.719 579.277 226.719 578.52C226.719 577.763 229.194 571.957 232.219 565.617C235.244 559.277 237.719 553.372 237.719 552.493C237.719 551.615 238.169 550.896 238.719 550.896C239.269 550.896 239.719 549.771 239.719 548.396C239.719 547.021 240.169 545.896 240.719 545.896C241.269 545.896 241.719 544.636 241.719 543.096C241.719 541.556 242.196 539.819 242.78 539.235C244.436 537.579 242.384 497.896 240.643 497.896C240.135 497.896 239.719 494.521 239.719 490.396C239.719 486.063 239.297 482.896 238.719 482.896C238.148 482.896 237.719 479.916 237.719 475.955C237.719 472.137 237.269 468.736 236.719 468.396C236.169 468.056 235.719 465.474 235.719 462.658C235.719 453.675 231.109 442.32 225.073 436.437C219.14 430.654 216.594 428.852 213.448 428.206C211.924 427.893 210.435 427.246 210.139 426.767C209.386 425.548 189.978 425.668 189.219 426.896C188.879 427.446 187.796 427.896 186.813 427.896C185.83 427.896 183.987 428.796 182.719 429.896C181.451 430.996 180.047 431.896 179.599 431.896C178.856 431.896 175.952 434.745 169.969 441.343C168.731 442.708 167.719 444.489 167.719 445.301C167.719 446.113 167.269 447.056 166.719 447.396C166.169 447.736 165.719 449.337 165.719 450.955C165.719 452.573 165.269 453.896 164.719 453.896C164.169 453.896 163.719 455.696 163.719 457.896C163.719 460.096 163.269 461.896 162.719 461.896C162.169 461.896 161.719 463.444 161.719 465.337C161.719 467.23 161.317 469.027 160.825 469.331C160.333 469.635 159.694 471.574 159.405 473.64C158.676 478.854 157.72 483.038 156.719 485.396C156.252 486.496 155.644 488.521 155.367 489.896C154.287 495.273 150.079 509.87 149.418 510.531C149.033 510.915 148.719 512.954 148.719 515.063C148.719 517.171 148.269 518.896 147.719 518.896C147.169 518.896 146.719 520.471 146.719 522.396C146.719 524.321 146.269 525.896 145.719 525.896C145.169 525.896 144.719 527.696 144.719 529.896C144.719 532.096 144.269 533.896 143.719 533.896C143.169 533.896 142.719 535.696 142.719 537.896C142.719 540.096 142.269 541.896 141.719 541.896C141.169 541.896 140.719 542.802 140.719 543.91C140.719 547.193 136.957 552.896 134.79 552.896C134.201 552.896 133.719 553.346 133.719 553.896C133.719 554.446 133.044 554.896 132.219 554.896C131.394 554.896 130.719 555.346 130.719 555.896C130.719 556.489 127.052 556.896 121.719 556.896C116.386 556.896 112.719 556.489 112.719 555.896C112.719 555.346 110.919 554.896 108.719 554.896C106.519 554.896 104.719 554.446 104.719 553.896C104.719 553.346 103.171 552.896 101.278 552.896C99.3846 552.896 97.5586 552.446 97.2186 551.896C96.8786 551.346 95.3036 550.896 93.7186 550.896C92.1336 550.896 90.5586 550.446 90.2186 549.896C89.8786 549.346 88.6696 548.896 87.5306 548.896C86.3926 548.896 82.0316 547.808 77.8396 546.477C73.6486 545.147 68.1936 543.51 65.7186 542.839C59.5766 541.173 55.7186 539.558 55.7186 538.652C55.7186 538.236 55.1426 537.896 54.4396 537.896C53.7356 537.896 52.4986 536.941 51.6896 535.773C50.8806 534.606 49.6566 533.063 48.9686 532.345C48.2816 531.627 47.7186 530.107 47.7186 528.967C47.7186 527.828 47.2686 526.896 46.7186 526.896C46.1686 526.896 45.7186 524.646 45.7186 521.896C45.7186 519.146 46.1686 516.896 46.7186 516.896C47.2686 516.896 47.7186 515.715 47.7186 514.271C47.7186 510.787 56.7216 501.896 60.2506 501.896C61.6076 501.896 62.7186 501.446 62.7186 500.896C62.7186 500.346 64.4916 499.896 66.6596 499.896C68.8276 499.896 70.8786 500.346 71.2186 500.896C71.5586 501.446 72.8286 501.896 74.0416 501.896C75.2546 501.896 78.7157 502.82 81.7327 503.95C87.8687 506.247 100.111 506.904 101.979 505.036C102.606 504.409 103.929 503.896 104.919 503.896C105.909 503.896 106.719 503.446 106.719 502.896C106.719 502.346 107.282 501.895 107.969 501.895C108.657 501.894 110.395 500.882 111.831 499.645C114.083 497.706 115.499 495.353 120.85 484.66C121.328 483.705 121.719 482.017 121.719 480.91C121.719 479.802 122.169 478.896 122.719 478.896C123.269 478.896 123.719 477.771 123.719 476.396C123.719 475.021 124.169 473.896 124.719 473.896C125.269 473.896 125.719 472.771 125.719 471.396C125.719 470.021 126.169 468.896 126.719 468.896C127.269 468.896 127.719 467.798 127.719 466.455C127.719 465.112 128.169 463.736 128.719 463.396C129.269 463.056 129.719 461.68 129.719 460.337C129.719 458.994 130.059 457.896 130.474 457.896C130.89 457.896 131.728 456.434 132.337 454.646C132.945 452.858 134.142 449.371 134.997 446.896C137.984 438.239 138.719 435.226 138.719 431.634C138.719 429.643 139.169 427.736 139.719 427.396C140.269 427.056 140.719 424.78 140.719 422.337C140.719 419.894 141.169 417.896 141.719 417.896C142.269 417.896 142.719 415.421 142.719 412.396C142.719 409.371 143.169 406.896 143.719 406.896C144.269 406.896 144.719 404.646 144.719 401.896C144.719 399.146 145.169 396.896 145.719 396.896C146.269 396.896 146.719 394.736 146.719 392.096C146.719 389.456 147.123 386.868 147.617 386.346C148.11 385.824 148.754 383.596 149.046 381.396C149.668 376.725 150.976 370.172 153.238 360.396C154.129 356.546 155.109 351.259 155.416 348.646C155.722 346.033 156.366 343.896 156.846 343.896C157.326 343.896 157.719 342.117 157.719 339.943C157.719 337.769 158.247 334.832 158.892 333.416C159.789 331.447 159.789 330.566 158.892 329.669C158.247 329.024 157.719 327.446 157.719 326.163C157.719 323.511 152.627 318.025 148.422 316.146C144.839 314.545 138.599 314.545 135.016 316.146C131.873 317.551 123.719 325.291 123.719 326.87C123.719 327.434 123.269 327.896 122.719 327.896C122.169 327.896 121.719 328.406 121.719 329.029C121.719 329.652 120.916 330.889 119.934 331.779C118.952 332.668 116.364 335.646 114.184 338.396C112.003 341.146 108.982 344.589 107.469 346.047C105.957 347.505 104.719 348.963 104.719 349.286C104.719 349.931 103.03 352.102 97.7186 358.283C95.7936 360.524 93.7686 362.95 93.2186 363.674C92.6686 364.399 91.2066 366.075 89.9686 367.399C88.7306 368.722 87.7186 370.066 87.7186 370.384C87.7186 370.702 86.1806 372.5 84.3016 374.379C82.4226 376.259 80.5926 378.719 80.2346 379.846C79.8766 380.974 78.9696 381.896 78.2186 381.896C77.4676 381.896 76.5906 382.723 76.2706 383.734C75.9496 384.744 73.7046 387.557 71.2816 389.984C65.4076 395.867 64.0736 396.896 62.3196 396.896C61.5036 396.896 60.5586 397.346 60.2186 397.896C59.8786 398.446 56.9276 398.896 53.6596 398.896C50.3656 398.896 47.7186 398.45 47.7186 397.896C47.7186 397.346 47.0236 396.896 46.1746 396.896C43.7186 396.896 37.0316 390.093 34.7796 385.303C32.6276 380.724 32.1126 375.096 33.5756 372.132C36.6646 365.875 38.4536 363.084 41.1546 360.309C44.8326 356.529 47.7186 353.05 47.7186 352.396C47.7186 351.81 50.1076 348.891 54.7186 343.846C56.6436 341.74 59.5686 338.374 61.2186 336.367C62.8686 334.36 65.4566 331.36 66.9686 329.701C68.4806 328.042 69.7186 326.329 69.7186 325.895C69.7186 325.461 71.7956 322.921 74.3336 320.251C76.8726 317.581 80.1336 313.821 81.5806 311.896C83.0276 309.971 85.3396 307.271 86.7186 305.896C88.0976 304.521 90.4196 301.821 91.8806 299.896C93.3406 297.971 96.3766 294.389 98.6266 291.936C100.878 289.483 102.719 287.106 102.719 286.653C102.719 286.2 104.181 284.342 105.969 282.523C107.756 280.705 110.569 277.479 112.219 275.354C113.869 273.23 117.131 269.569 119.469 267.22C121.806 264.871 123.719 262.697 123.719 262.389C123.719 261.633 130.495 254.896 131.255 254.896C131.587 254.896 133.821 253.546 136.219 251.896C138.617 250.246 141.061 248.896 141.649 248.896C142.238 248.896 142.719 248.446 142.719 247.896C142.719 247.346 144.069 246.896 145.719 246.896C147.369 246.896 148.719 246.446 148.719 245.896C148.719 245.346 150.042 244.896 151.66 244.896C153.278 244.896 154.845 244.501 155.144 244.017C156.171 242.355 166.317 241.81 241.219 239.395C259.388 238.809 269.782 237.221 271.276 234.804C271.585 234.304 272.53 233.896 273.377 233.896C274.224 233.896 276.178 232.546 277.719 230.896C279.26 229.246 281.036 227.896 281.666 227.896C282.295 227.896 283.833 226.884 285.084 225.646C286.335 224.408 288.609 222.496 290.137 221.396C291.665 220.296 294.967 217.483 297.476 215.146C299.985 212.809 302.541 210.896 303.157 210.896C303.773 210.896 304.926 209.996 305.719 208.896C306.512 207.796 307.532 206.896 307.985 206.896C308.439 206.896 309.848 205.884 311.117 204.646C312.385 203.408 315.562 200.596 318.176 198.396C320.79 196.196 323.524 193.834 324.252 193.146C324.98 192.459 326.058 191.896 326.648 191.896C327.237 191.896 327.719 191.446 327.719 190.896C327.719 190.346 328.213 189.896 328.818 189.896C329.422 189.896 331.11 188.627 332.568 187.075C334.026 185.524 335.967 183.836 336.881 183.325C337.795 182.814 340.363 180.709 342.588 178.646C344.812 176.584 347.101 174.896 347.675 174.896C348.249 174.896 348.719 174.446 348.719 173.896C348.719 173.346 349.213 172.896 349.818 172.896C350.422 172.896 352.178 171.546 353.719 169.896C355.26 168.246 357.241 166.896 358.12 166.896C359 166.896 359.723 166.559 359.727 166.146C359.731 165.733 360.946 164.834 362.426 164.146C365.63 162.658 376.719 162.464 376.719 163.896C376.719 164.446 377.52 164.896 378.498 164.896C379.477 164.896 380.926 165.796 381.719 166.896C382.512 167.996 383.698 168.896 384.356 168.896C385.013 168.896 386.149 170.246 386.879 171.896C387.61 173.546 388.547 174.896 388.963 174.896C389.379 174.896 389.719 178.064 389.719 181.936C389.719 190.561 387.576 195.279 381.507 200.012C379.149 201.852 376.026 204.603 374.568 206.126C373.11 207.65 371.422 208.896 370.818 208.896C370.213 208.896 369.719 209.346 369.719 209.896C369.719 210.446 369.25 210.896 368.677 210.896C368.104 210.896 366.642 211.829 365.427 212.969C364.213 214.109 361.933 216.021 360.361 217.219C358.789 218.416 355.992 220.858 354.145 222.646C352.297 224.434 350.321 225.896 349.752 225.896C349.184 225.896 348.719 226.346 348.719 226.896C348.719 227.446 348.143 227.896 347.44 227.896C346.736 227.896 345.512 228.796 344.719 229.896C343.926 230.996 342.912 231.896 342.465 231.896C342.018 231.896 340.141 233.358 338.293 235.146C336.446 236.934 333.649 239.376 332.077 240.573C330.505 241.771 328.225 243.683 327.011 244.823C325.796 245.963 324.334 246.896 323.761 246.896C323.188 246.896 322.719 247.346 322.719 247.896C322.719 248.446 322.254 248.896 321.686 248.896C321.117 248.896 319.152 250.358 317.319 252.146C315.485 253.934 312.718 256.296 311.169 257.396C305.98 261.082 293.045 274.469 289.366 279.961C287.364 282.95 285.274 285.94 284.722 286.604C284.171 287.268 283.719 288.479 283.719 289.295C283.719 290.111 283.269 291.056 282.719 291.396C282.169 291.736 281.719 293.112 281.719 294.455C281.719 295.798 281.269 296.896 280.719 296.896C280.169 296.896 279.719 298.471 279.719 300.396C279.719 302.321 279.269 303.896 278.719 303.896C278.076 303.896 277.719 314.063 277.719 332.396C277.719 350.729 278.076 360.896 278.719 360.896C279.269 360.896 279.719 362.041 279.719 363.441C279.719 364.841 280.731 366.992 281.969 368.221C286.677 372.896 289.01 373.896 295.214 373.896C300.499 373.896 301.737 373.506 305.012 370.806C311.644 365.339 311.736 364.865 311.502 337.203C311.3 313.272 311.377 312.158 313.696 305.646C315.017 301.934 316.463 298.896 316.909 298.896C317.354 298.896 317.719 298.221 317.719 297.396C317.719 296.571 318.169 295.896 318.719 295.896C319.269 295.896 319.719 295.328 319.719 294.633C319.719 293.939 320.918 292.476 322.384 291.383C323.85 290.29 325.618 288.834 326.313 288.146C327.008 287.459 328.058 286.896 328.648 286.896C329.237 286.896 329.719 286.446 329.719 285.896C329.719 285.346 330.184 284.896 330.752 284.896C331.321 284.896 333.286 283.434 335.119 281.646C336.953 279.858 339.704 277.496 341.233 276.396C342.762 275.296 345.61 272.934 347.561 271.146C349.513 269.358 351.516 267.896 352.013 267.896C352.51 267.896 354.11 266.657 355.568 265.143C357.026 263.629 359.794 261.208 361.719 259.763C363.644 258.319 366.677 255.733 368.46 254.017C370.242 252.3 372.19 250.896 372.788 250.896C373.386 250.896 375.605 249.096 377.719 246.896C379.833 244.696 381.817 242.896 382.129 242.896C382.861 242.896 386.173 240.242 390.552 236.146C392.462 234.358 394.392 232.896 394.839 232.896C395.286 232.896 397.227 231.321 399.152 229.396C401.077 227.471 402.904 225.896 403.212 225.896C404.217 225.896 412.719 216.976 412.719 215.922C412.719 215.358 413.169 214.896 413.719 214.896C414.269 214.896 414.719 214.161 414.719 213.263C414.719 212.365 415.522 210.903 416.504 210.013C417.486 209.124 419.399 205.021 420.754 200.896C422.77 194.763 423.219 191.392 423.219 182.396C423.219 175.541 422.709 170.077 421.866 167.896C419.685 162.255 416.28 155.423 415.469 155.063C415.056 154.879 414.719 154.191 414.719 153.533C414.719 152.876 413.819 151.689 412.719 150.896C411.619 150.103 410.707 148.766 410.693 147.925C410.679 147.084 408.223 144.596 405.235 142.396C402.248 140.196 399.784 138.059 399.761 137.646C399.738 137.233 398.819 136.896 397.719 136.896C396.619 136.896 395.719 136.446 395.719 135.896C395.719 135.346 394.819 134.896 393.719 134.896C392.619 134.896 391.719 134.446 391.719 133.896C391.719 133.346 390.819 132.896 389.719 132.896C388.619 132.896 387.719 132.446 387.719 131.896C387.719 131.346 385.694 130.896 383.219 130.896C380.744 130.896 378.719 130.446 378.719 129.896C378.719 129.3 374.886 128.896 369.219 128.896C363.552 128.896 359.719 129.3 359.719 129.896ZM511.219 164.628C508.469 164.842 505.791 165.439 505.269 165.956C504.747 166.473 503.059 166.896 501.519 166.896C499.979 166.896 498.719 167.346 498.719 167.896C498.719 168.446 497.819 168.896 496.719 168.896C495.619 168.896 494.719 169.346 494.719 169.896C494.719 170.446 493.819 170.896 492.719 170.896C491.619 170.896 490.719 171.346 490.719 171.896C490.719 172.446 490.06 172.896 489.254 172.896C487.247 172.896 473.719 186.303 473.719 188.293C473.719 189.175 473.269 189.896 472.719 189.896C472.169 189.896 471.719 190.796 471.719 191.896C471.719 192.996 471.382 193.9 470.969 193.904C469.954 193.914 467.719 198.861 467.719 201.095C467.719 202.086 467.35 202.896 466.899 202.896C466.448 202.896 465.498 206.474 464.788 210.846C463.737 217.319 463.735 220.394 464.776 227.391C465.479 232.118 466.429 236.217 466.887 236.5C467.344 236.783 467.719 237.887 467.719 238.955C467.719 240.023 468.169 240.896 468.719 240.896C469.269 240.896 469.719 241.796 469.719 242.896C469.719 243.996 470.169 244.896 470.719 244.896C471.269 244.896 471.719 245.796 471.719 246.896C471.719 247.996 472.169 248.896 472.719 248.896C473.269 248.896 473.719 249.486 473.719 250.207C473.719 250.929 474.507 252.392 475.469 253.458C476.431 254.525 478.546 257.197 480.168 259.397C481.789 261.596 483.927 264.124 484.918 265.013C485.908 265.903 486.719 267.266 486.719 268.043C486.719 268.819 487.619 270.103 488.719 270.896C489.819 271.689 490.719 272.814 490.719 273.396C490.719 273.978 491.619 275.103 492.719 275.896C493.819 276.689 494.719 277.825 494.719 278.421C494.719 279.467 498.335 283.895 504.679 290.618C506.351 292.389 507.719 294.076 507.719 294.365C507.719 294.655 509.293 296.56 511.217 298.6C513.141 300.64 514.971 303.116 515.284 304.102C515.598 305.089 516.253 305.896 516.742 305.896C517.231 305.896 519.563 307.961 521.925 310.486C532.66 321.96 535.661 324.896 536.654 324.896C537.24 324.896 537.719 325.346 537.719 325.896C537.719 326.446 538.201 326.896 538.79 326.896C539.38 326.896 540.43 327.459 541.125 328.146C541.82 328.834 543.645 330.296 545.18 331.396C546.715 332.496 549.019 334.408 550.299 335.646C551.58 336.884 553.324 337.896 554.174 337.896C555.024 337.896 555.719 338.346 555.719 338.896C555.719 339.446 556.394 339.896 557.219 339.896C558.044 339.896 558.719 340.346 558.719 340.896C558.719 341.446 559.394 341.896 560.219 341.896C561.044 341.896 561.719 342.346 561.719 342.896C561.719 343.446 562.394 343.896 563.219 343.896C564.044 343.896 564.719 344.316 564.719 344.829C564.719 345.342 565.616 346.046 566.713 346.394C567.81 346.742 569.272 347.568 569.963 348.228C570.654 348.889 574.028 351.222 577.46 353.413C580.893 355.604 583.705 357.733 583.71 358.146C583.715 358.559 584.52 358.896 585.498 358.896C586.477 358.896 587.926 359.796 588.719 360.896C589.512 361.996 590.961 362.896 591.94 362.896C592.918 362.896 593.719 363.346 593.719 363.896C593.719 364.446 594.394 364.896 595.219 364.896C596.044 364.896 596.719 365.249 596.719 365.68C596.719 366.112 598.1 367.28 599.787 368.277C602.578 369.926 610.522 377.432 613.377 381.119C617.308 386.195 621.682 396.979 621.704 401.646C621.712 403.434 622.169 404.896 622.719 404.896C623.269 404.896 623.719 406.921 623.719 409.396C623.719 411.871 624.169 413.896 624.719 413.896C625.269 413.896 625.719 415.696 625.719 417.896C625.719 420.096 626.169 421.896 626.719 421.896C627.269 421.896 627.719 423.921 627.719 426.396C627.719 428.871 628.124 430.896 628.618 430.896C629.113 430.896 629.738 432.809 630.008 435.146C630.278 437.483 631.01 441.196 631.635 443.396C632.26 445.596 633.173 449.421 633.664 451.896C634.155 454.371 635.44 460.671 636.519 465.896C641.082 487.994 641.316 491.567 639.212 506.896C638.872 509.371 637.543 519.046 636.259 528.396C634.974 537.746 633.398 550.121 632.757 555.896C632.115 561.671 631.344 567.521 631.042 568.896C630.741 570.271 630.303 574.321 630.068 577.896C629.833 581.471 629.188 585.305 628.634 586.417C628.013 587.661 627.814 595.154 628.114 605.917C628.383 615.53 629.039 642.521 629.573 665.896C630.49 706.021 631.308 718.381 633.511 725.396C634.898 729.81 639.001 738.344 639.922 738.729C640.36 738.913 640.719 739.64 640.719 740.345C640.719 741.874 651.108 752.896 652.549 752.896C653.101 752.896 653.702 753.257 653.886 753.697C654.404 754.944 667.911 761.517 671.767 762.399C679.489 764.165 705.719 762.923 705.719 760.791C705.719 760.299 706.379 759.896 707.185 759.896C709.04 759.896 715.795 756.798 717.54 755.146C718.267 754.459 719.254 753.896 719.734 753.896C722.356 753.896 737.719 735.976 737.719 732.917C737.719 732.356 738.169 731.896 738.719 731.896C739.269 731.896 739.719 730.546 739.719 728.896C739.719 727.246 740.169 725.896 740.719 725.896C741.269 725.896 741.719 723.646 741.719 720.896C741.719 718.146 742.169 715.896 742.719 715.896C743.307 715.896 743.719 712.396 743.719 707.396C743.719 702.396 743.307 698.896 742.719 698.896C742.126 698.896 741.719 695.229 741.719 689.896C741.719 684.563 741.312 680.896 740.719 680.896C740.138 680.896 739.719 677.629 739.719 673.096C739.719 668.806 739.304 664.869 738.797 664.346C738.29 663.824 737.676 660.246 737.433 656.396C737.191 652.546 736.464 644.896 735.819 639.396C734.93 631.824 734.92 625.268 735.779 612.396C736.402 603.046 737.303 589.546 737.781 582.396C739.081 562.945 739.799 556.896 740.808 556.896C741.309 556.896 741.719 558.921 741.719 561.396C741.719 563.871 742.169 565.896 742.719 565.896C743.269 565.896 743.719 567.696 743.719 569.896C743.719 572.096 744.124 573.896 744.618 573.896C745.113 573.896 745.733 575.809 745.997 578.146C746.405 581.761 748.207 589.331 754.861 615.396C755.422 617.596 756.118 621.086 756.406 623.152C756.694 625.218 757.333 627.157 757.825 627.461C758.317 627.765 758.719 629.787 758.719 631.955C758.719 634.123 759.169 635.896 759.719 635.896C760.269 635.896 760.719 637.921 760.719 640.396C760.719 642.871 761.122 644.896 761.614 644.896C762.106 644.896 762.781 646.696 763.114 648.896C763.447 651.096 763.992 654.699 764.325 656.902C764.658 659.106 765.333 661.157 765.825 661.461C766.317 661.765 766.719 663.193 766.719 664.634C766.719 666.075 767.139 668.636 767.651 670.325C768.164 672.014 769.043 675.196 769.604 677.396C771.942 686.563 774.085 693.455 774.876 694.346C775.34 694.869 775.719 696.106 775.719 697.096C775.719 698.086 776.169 698.896 776.719 698.896C777.269 698.896 777.719 699.796 777.719 700.896C777.719 701.996 778.169 702.896 778.719 702.896C779.269 702.896 779.719 703.614 779.719 704.492C779.719 706.32 794.18 720.59 796.91 721.457C797.905 721.772 798.719 722.45 798.719 722.963C798.719 723.476 799.592 723.896 800.66 723.896C801.728 723.896 802.879 724.346 803.219 724.896C803.559 725.446 805.16 725.896 806.778 725.896C808.396 725.896 809.719 726.346 809.719 726.896C809.719 727.52 815.552 727.896 825.219 727.896C834.886 727.896 840.719 727.52 840.719 726.896C840.719 726.346 842.069 725.896 843.719 725.896C845.369 725.896 846.719 725.446 846.719 724.896C846.719 724.346 847.844 723.896 849.219 723.896C850.594 723.896 851.719 723.556 851.719 723.14C851.719 722.724 853.1 721.773 854.788 721.026C856.476 720.279 858.93 718.594 860.242 717.282C861.555 715.97 862.885 714.896 863.2 714.896C864.534 714.896 872.493 706.027 873.792 703.094C874.57 701.335 875.547 699.896 875.963 699.896C876.379 699.896 876.719 698.996 876.719 697.896C876.719 696.796 877.169 695.896 877.719 695.896C878.269 695.896 878.719 694.584 878.719 692.979C878.719 691.375 879.269 689.879 879.942 689.655C881.635 689.091 881.599 660.376 879.903 658.68C879.252 658.029 878.719 655.786 878.719 653.696C878.719 651.606 878.269 649.896 877.719 649.896C877.169 649.896 876.719 648.321 876.719 646.396C876.719 644.471 876.269 642.896 875.719 642.896C875.169 642.896 874.719 641.765 874.719 640.382C874.719 639 874.313 637.087 873.816 636.132C872.999 634.559 871.902 630.935 869.661 622.396C867.942 615.844 863.42 601.297 862.595 599.66C862.113 598.705 861.719 596.792 861.719 595.41C861.719 594.027 861.269 592.896 860.719 592.896C860.169 592.896 859.719 591.321 859.719 589.396C859.719 587.471 859.269 585.896 858.719 585.896C858.169 585.896 857.719 584.096 857.719 581.896C857.719 579.696 857.269 577.896 856.719 577.896C856.169 577.896 855.719 576.546 855.719 574.896C855.719 573.246 855.269 571.896 854.719 571.896C854.169 571.896 853.719 570.54 853.719 568.882C853.719 567.225 853.313 565.087 852.816 564.132C852.32 563.177 851.383 560.371 850.735 557.896C850.087 555.421 848.468 549.966 847.138 545.775C845.807 541.583 844.719 537.222 844.719 536.084C844.719 534.945 844.269 533.736 843.719 533.396C843.169 533.056 842.719 531.23 842.719 529.337C842.719 527.444 842.269 525.896 841.719 525.896C841.169 525.896 840.719 524.321 840.719 522.396C840.719 520.471 840.269 518.896 839.719 518.896C839.169 518.896 838.719 516.871 838.719 514.396C838.719 511.921 838.269 509.896 837.719 509.896C837.169 509.896 836.719 508.096 836.719 505.896C836.719 503.696 836.269 501.896 835.719 501.896C835.169 501.896 834.719 499.646 834.719 496.896C834.719 494.146 834.269 491.896 833.719 491.896C833.169 491.896 832.719 490.066 832.719 487.83C832.719 485.594 832.243 482.875 831.661 481.788C831.079 480.701 830.742 478.18 830.911 476.186L831.219 472.561L843.039 484.229C849.54 490.646 855.502 495.896 856.289 495.896C857.075 495.896 857.719 496.346 857.719 496.896C857.719 497.446 858.619 497.896 859.719 497.896C860.819 497.896 861.719 498.346 861.719 498.896C861.719 499.446 862.619 499.896 863.719 499.896C864.819 499.896 865.719 500.346 865.719 500.896C865.719 501.446 866.844 501.896 868.219 501.896C869.594 501.896 870.719 502.243 870.719 502.668C870.719 503.64 882.408 505.896 887.443 505.896C889.52 505.896 894.37 505.181 898.219 504.307C902.069 503.434 906.457 502.483 907.969 502.194C909.482 501.905 910.719 501.27 910.719 500.783C910.719 500.295 911.619 499.896 912.719 499.896C913.819 499.896 914.719 499.446 914.719 498.896C914.719 498.346 915.386 497.896 916.202 497.896C919.236 497.896 935.719 481.413 935.719 478.379C935.719 477.563 936.169 476.896 936.719 476.896C937.269 476.896 937.719 475.996 937.719 474.896C937.719 473.796 938.169 472.896 938.719 472.896C939.269 472.896 939.719 471.99 939.719 470.882C939.719 469.775 940.139 468.087 940.653 467.132C943.474 461.885 944.714 445.815 942.787 439.467C942.274 437.778 941.296 434.371 940.613 431.896C939.93 429.421 938.999 426.969 938.545 426.446C938.091 425.924 937.719 424.785 937.719 423.917C937.719 423.048 936.819 421.689 935.719 420.896C934.619 420.103 933.719 418.88 933.719 418.177C933.719 417.475 931.897 414.987 929.67 412.648C927.443 410.309 924.631 407.125 923.42 405.572C922.21 404.019 918.628 399.995 915.461 396.63C912.294 393.265 908.019 388.545 905.961 386.142C903.903 383.738 899.744 379.134 896.719 375.911C893.694 372.687 889.419 367.962 887.219 365.411C885.019 362.86 881.306 358.787 878.969 356.36C876.632 353.934 874.719 351.702 874.719 351.401C874.719 351.099 872.357 348.39 869.469 345.38C858.3 333.736 855.719 330.924 855.719 330.393C855.719 330.091 853.806 327.884 851.469 325.49C845.776 319.658 840.719 313.941 840.719 313.336C840.719 312.645 831.897 303.896 831.2 303.896C830.885 303.896 829.503 302.771 828.128 301.396C826.753 300.021 825.311 298.889 824.924 298.88C824.536 298.871 822.644 297.526 820.719 295.891C818.794 294.255 816.769 292.55 816.219 292.101C815.669 291.652 813.757 290.637 811.969 289.846C810.181 289.055 808.719 288.068 808.719 287.652C808.719 287.236 807.819 286.896 806.719 286.896C805.619 286.896 804.719 286.446 804.719 285.896C804.719 285.346 803.819 284.896 802.719 284.896C801.619 284.896 800.719 284.446 800.719 283.896C800.719 283.346 799.819 282.896 798.719 282.896C797.619 282.896 796.719 282.446 796.719 281.896C796.719 281.346 796.038 280.896 795.205 280.896C794.373 280.896 792.91 280.474 791.955 279.958C786.46 276.99 773.419 273.305 761.219 271.274C759.019 270.908 738.782 270.438 716.247 270.23C691.418 270.001 674.889 269.466 674.297 268.874C673.759 268.336 671.609 267.896 669.519 267.896C667.429 267.896 665.719 267.446 665.719 266.896C665.719 266.346 664.369 265.896 662.719 265.896C661.069 265.896 659.719 265.446 659.719 264.896C659.719 264.346 658.594 263.896 657.219 263.896C655.844 263.896 654.719 263.446 654.719 262.896C654.719 262.346 654.113 261.896 653.373 261.896C650.966 261.896 630.612 251.28 629.886 249.646C629.702 249.233 628.911 248.896 628.127 248.896C627.342 248.896 625.288 247.546 623.562 245.896C621.835 244.246 620.02 242.896 619.529 242.896C619.037 242.896 617.642 241.963 616.427 240.823C615.213 239.683 612.938 237.771 611.373 236.573C609.807 235.376 605.919 231.921 602.733 228.896C599.547 225.871 595.325 222.046 593.351 220.396C591.377 218.746 589.752 217.049 589.741 216.624C589.729 216.2 587.357 213.479 584.469 210.579C581.581 207.679 577.869 203.569 576.219 201.447C574.569 199.325 572.206 196.553 570.969 195.288C569.732 194.022 568.719 192.524 568.719 191.958C568.719 191.011 564.996 186.588 558.682 180.031C554.919 176.124 550.894 172.933 548.151 171.683C546.813 171.074 545.719 170.197 545.719 169.735C545.719 169.274 544.594 168.896 543.219 168.896C541.844 168.896 540.719 168.446 540.719 167.896C540.719 167.346 539.407 166.896 537.802 166.896C536.198 166.896 534.736 166.512 534.552 166.044C534.157 165.033 518.356 164.075 511.219 164.628ZM529.006 199.545C533.034 201.627 538.622 207.673 542.502 214.146C543.408 215.658 544.503 216.896 544.935 216.896C545.366 216.896 545.719 217.39 545.719 217.995C545.719 218.599 547.069 220.355 548.719 221.896C550.369 223.437 551.719 225.176 551.719 225.759C551.719 226.983 574.603 250.008 580.014 254.227C582.011 255.784 585.324 258.597 587.377 260.477C589.43 262.357 591.598 263.896 592.194 263.896C592.79 263.896 593.926 264.796 594.719 265.896C595.512 266.996 596.736 267.896 597.44 267.896C598.143 267.896 598.719 268.346 598.719 268.896C598.719 269.446 599.282 269.902 599.969 269.909C600.657 269.917 602.344 270.819 603.719 271.915C607.706 275.093 613.723 278.896 614.763 278.896C615.289 278.896 615.719 279.346 615.719 279.896C615.719 280.446 616.309 280.896 617.03 280.896C617.752 280.896 619.308 281.796 620.489 282.896C621.669 283.996 623.329 284.896 624.177 284.896C625.025 284.896 625.719 285.346 625.719 285.896C625.719 286.446 626.619 286.896 627.719 286.896C628.819 286.896 629.719 287.346 629.719 287.896C629.719 288.446 630.282 288.906 630.969 288.918C631.657 288.93 633.344 289.82 634.719 290.896C636.094 291.972 638.007 292.862 638.969 292.874C639.931 292.886 640.719 293.346 640.719 293.896C640.719 294.446 641.379 294.896 642.185 294.896C643.534 294.896 648.754 296.894 652.955 299.018C653.91 299.501 655.796 299.896 657.146 299.896C658.496 299.896 659.879 300.346 660.219 300.896C660.559 301.446 663.06 301.896 665.778 301.896C668.496 301.896 670.719 302.346 670.719 302.896C670.719 303.547 685.719 303.896 713.719 303.896C741.719 303.896 756.719 304.245 756.719 304.896C756.719 305.446 758.969 305.896 761.719 305.896C764.469 305.896 766.719 306.346 766.719 306.896C766.719 307.446 768.294 307.896 770.219 307.896C772.144 307.896 773.719 308.346 773.719 308.896C773.719 309.446 775.069 309.896 776.719 309.896C778.369 309.896 779.719 310.346 779.719 310.896C779.719 311.446 780.403 311.896 781.239 311.896C782.075 311.896 784.541 313.021 786.719 314.396C788.897 315.771 791.138 316.896 791.699 316.896C792.26 316.896 792.719 317.346 792.719 317.896C792.719 318.446 793.52 318.896 794.498 318.896C795.477 318.896 796.926 319.796 797.719 320.896C798.512 321.996 799.781 322.896 800.539 322.896C801.296 322.896 803.178 324.246 804.719 325.896C806.26 327.546 807.806 328.896 808.154 328.896C808.931 328.896 815.719 335.615 815.719 336.384C815.719 336.69 818.081 339.353 820.969 342.303C823.857 345.254 827.333 349.132 828.694 350.923C830.055 352.714 833.655 356.724 836.694 359.835C839.733 362.946 844.469 368.165 847.219 371.433C849.969 374.702 854.469 379.678 857.219 382.491C859.969 385.304 863.631 389.359 865.357 391.501C867.082 393.643 870.922 397.922 873.89 401.01C876.857 404.098 881.07 408.782 883.252 411.419C885.434 414.055 889.694 418.79 892.719 421.94C906.975 436.785 910.604 442.588 910.674 450.646C910.699 453.534 910.269 455.896 909.719 455.896C909.169 455.896 908.719 456.815 908.719 457.939C908.719 461.403 900.253 469.491 894.739 471.295C888.507 473.333 887.314 473.306 880.966 470.986C877.136 469.586 873.59 466.983 867.684 461.236C863.252 456.924 856.279 450.133 852.189 446.146C848.098 442.159 844.407 438.88 843.985 438.86C843.564 438.84 841.419 436.766 839.219 434.251C837.019 431.735 833.949 428.489 832.396 427.036C830.843 425.584 826.921 421.848 823.68 418.735C820.439 415.621 816.141 412.53 814.128 411.866C810.468 410.658 801.857 411.181 800.773 412.677C800.468 413.098 798.982 414.23 797.469 415.192C795.956 416.155 794.719 417.607 794.719 418.419C794.719 419.231 794.297 419.896 793.78 419.896C792.068 419.896 791.649 428.245 792.776 439.896C793.388 446.221 794.11 454.546 794.382 458.396C794.653 462.246 795.29 465.824 795.797 466.346C796.304 466.868 796.719 470.356 796.719 474.096C796.719 477.963 797.15 480.896 797.719 480.896C798.283 480.896 798.719 483.729 798.719 487.396C798.719 491.063 799.155 493.896 799.719 493.896C800.269 493.896 800.719 496.344 800.719 499.337C800.719 502.33 801.169 505.056 801.719 505.396C802.269 505.736 802.719 508.462 802.719 511.455C802.719 514.448 803.169 516.896 803.719 516.896C804.269 516.896 804.719 518.219 804.719 519.837C804.719 521.455 805.169 523.056 805.719 523.396C806.269 523.736 806.717 524.775 806.715 525.705C806.71 527.613 811.452 543.466 812.825 546.132C813.317 547.087 813.719 549 813.719 550.382C813.719 551.765 814.169 552.896 814.719 552.896C815.269 552.896 815.719 554.696 815.719 556.896C815.719 559.096 816.169 560.896 816.719 560.896C817.269 560.896 817.719 562.471 817.719 564.396C817.719 566.321 818.169 567.896 818.719 567.896C819.269 567.896 819.719 569.696 819.719 571.896C819.719 574.096 820.169 575.896 820.719 575.896C821.269 575.896 821.719 577.246 821.719 578.896C821.719 580.546 822.169 581.896 822.719 581.896C823.269 581.896 823.719 583.252 823.719 584.91C823.719 586.567 824.132 588.705 824.636 589.66C825.14 590.615 826.301 594.096 827.216 597.396C828.131 600.696 829.241 604.521 829.683 605.896C830.125 607.271 831.033 610.421 831.7 612.896C832.368 615.371 833.32 618.177 833.816 619.132C834.313 620.087 834.719 622.225 834.719 623.882C834.719 625.54 835.169 626.896 835.719 626.896C836.269 626.896 836.719 628.246 836.719 629.896C836.719 631.546 837.169 632.896 837.719 632.896C838.269 632.896 838.719 634.696 838.719 636.896C838.719 639.096 839.169 640.896 839.719 640.896C840.269 640.896 840.719 642.471 840.719 644.396C840.719 646.321 841.169 647.896 841.719 647.896C842.269 647.896 842.719 649 842.719 650.349C842.719 651.698 843.124 653.836 843.62 655.099C847.844 665.871 848.788 675.403 846.235 681.512C843.774 687.403 836.789 693.196 830.345 694.692C826.361 695.617 824.201 695.689 822.806 694.942C821.73 694.367 819.795 693.896 818.506 693.896C817.216 693.896 815.512 692.996 814.719 691.896C813.926 690.796 812.867 689.896 812.365 689.896C811.094 689.896 806.722 684.668 806.72 683.146C806.72 682.459 806.269 681.896 805.719 681.896C805.169 681.896 804.719 680.321 804.719 678.396C804.719 676.471 804.269 674.896 803.719 674.896C803.169 674.896 802.719 673.096 802.719 670.896C802.719 668.696 802.269 666.896 801.719 666.896C801.169 666.896 800.719 664.871 800.719 662.396C800.719 659.921 800.269 657.896 799.719 657.896C799.169 657.896 798.719 656.096 798.719 653.896C798.719 651.696 798.269 649.896 797.719 649.896C797.169 649.896 796.719 647.871 796.719 645.396C796.719 642.921 796.269 640.896 795.719 640.896C795.169 640.896 794.719 639.096 794.719 636.896C794.719 634.696 794.269 632.896 793.719 632.896C793.169 632.896 792.719 631.843 792.719 630.556C792.719 629.269 791.773 624.656 790.616 620.306C787.516 608.643 785.093 598.243 784.053 592.137C783.748 590.344 783.098 588.63 782.609 588.328C782.119 588.025 781.719 586.005 781.719 583.837C781.719 581.669 781.269 579.896 780.719 579.896C780.169 579.896 779.719 577.871 779.719 575.396C779.719 572.921 779.269 570.896 778.719 570.896C778.169 570.896 777.719 569.123 777.719 566.955C777.719 564.787 777.269 562.736 776.719 562.396C776.169 562.056 775.719 560.476 775.719 558.884C775.719 557.292 775.32 554.956 774.832 553.693C774.344 552.43 773.386 548.921 772.704 545.896C770.456 535.922 766.832 525.896 765.475 525.896C765.059 525.896 764.719 525.431 764.719 524.863C764.719 523.251 757.965 516.896 756.252 516.896C755.409 516.896 754.719 516.446 754.719 515.896C754.719 515.346 753.819 514.896 752.719 514.896C751.619 514.896 750.719 514.493 750.719 514.001C750.719 513.003 744.097 511.775 738.719 511.775C733.341 511.775 726.719 513.003 726.719 514.001C726.719 514.493 725.819 514.896 724.719 514.896C723.619 514.896 722.719 515.346 722.719 515.896C722.719 516.446 721.982 516.896 721.081 516.896C717.555 516.896 708.61 530.185 707.24 537.458C706.832 539.624 706.299 547.584 706.056 555.146C705.809 562.825 705.195 568.896 704.666 568.896C704.112 568.896 703.719 575.088 703.719 583.813C703.719 593.063 703.332 598.858 702.699 599.069C701.192 599.572 701.076 647.182 702.58 647.683C703.318 647.929 703.719 651.2 703.719 656.979C703.719 661.884 704.136 665.896 704.646 665.896C705.155 665.896 705.809 669.608 706.099 674.146C706.389 678.684 707.067 685.996 707.607 690.396C708.147 694.796 708.897 700.967 709.275 704.11C709.953 709.761 708.239 718.896 706.501 718.896C706.071 718.896 705.719 719.361 705.719 719.929C705.719 721.783 698.839 727.896 696.752 727.896C695.634 727.896 694.719 728.346 694.719 728.896C694.719 729.479 691.386 729.896 686.719 729.896C682.052 729.896 678.719 729.479 678.719 728.896C678.719 728.346 677.819 727.896 676.719 727.896C675.619 727.896 674.719 727.522 674.719 727.065C674.719 726.608 673.594 725.632 672.219 724.896C670.844 724.16 669.719 722.959 669.719 722.227C669.719 721.495 669.269 720.896 668.719 720.896C668.169 720.896 667.719 719.996 667.719 718.896C667.719 717.796 667.269 716.896 666.719 716.896C666.169 716.896 665.719 715.096 665.719 712.896C665.719 710.696 665.269 708.896 664.719 708.896C664.069 708.896 663.719 694.729 663.719 668.396C663.719 642.063 663.369 627.896 662.719 627.896C662.085 627.896 661.719 620.396 661.719 607.396C661.719 594.396 662.085 586.896 662.719 586.896C663.297 586.896 663.719 583.729 663.719 579.396C663.719 575.063 664.141 571.896 664.719 571.896C665.297 571.896 665.719 568.729 665.719 564.396C665.719 560.063 666.141 556.896 666.719 556.896C667.297 556.896 667.719 553.729 667.719 549.396C667.719 545.271 668.121 541.896 668.613 541.896C669.105 541.896 669.774 538.409 670.1 534.146C670.426 529.883 671.128 522.346 671.661 517.396C673.674 498.677 674.051 483.189 672.719 473.894C672.004 468.908 671.037 464.592 670.569 464.303C670.102 464.014 669.719 462.095 669.719 460.037C669.719 457.979 669.315 455.868 668.821 455.346C667.988 454.464 667.598 452.437 666.087 441.146C665.774 438.809 665.113 436.896 664.618 436.896C664.124 436.896 663.719 434.871 663.719 432.396C663.719 429.921 663.314 427.896 662.82 427.896C662.325 427.896 661.683 425.983 661.392 423.646C661.102 421.309 660.417 417.371 659.871 414.896C656.651 400.317 655.52 395.694 653.629 389.396C652.473 385.546 651.293 381.383 651.007 380.146C650.72 378.909 650.088 377.896 649.602 377.896C649.117 377.896 648.719 376.996 648.719 375.896C648.719 374.796 648.269 373.896 647.719 373.896C647.169 373.896 646.719 372.996 646.719 371.896C646.719 370.796 646.269 369.896 645.719 369.896C645.169 369.896 644.719 369.221 644.719 368.396C644.719 367.571 644.269 366.896 643.719 366.896C643.169 366.896 642.719 366.236 642.719 365.43C642.719 362.643 620.473 339.896 617.747 339.896C617.182 339.896 616.719 339.543 616.719 339.112C616.719 338.68 615.482 337.595 613.969 336.7C611.55 335.268 609.678 333.85 605.011 329.915C604.347 329.354 603.334 328.896 602.761 328.896C602.188 328.896 601.719 328.446 601.719 327.896C601.719 327.346 601.044 326.896 600.219 326.896C599.394 326.896 598.719 326.446 598.719 325.896C598.719 325.346 598.044 324.896 597.219 324.896C596.394 324.896 595.719 324.446 595.719 323.896C595.719 323.346 594.819 322.896 593.719 322.896C592.619 322.896 591.719 322.476 591.719 321.963C591.719 321.45 590.822 320.746 589.725 320.398C588.628 320.05 587.166 319.224 586.475 318.564C585.784 317.903 582.41 315.57 578.978 313.379C575.545 311.188 572.733 309.059 572.728 308.646C572.723 308.233 571.918 307.896 570.94 307.896C569.961 307.896 568.512 306.996 567.719 305.896C566.926 304.796 565.702 303.896 564.998 303.896C564.295 303.896 563.719 303.446 563.719 302.896C563.719 302.346 563.237 301.896 562.648 301.896C562.058 301.896 561.008 301.334 560.313 300.646C559.618 299.959 557.786 298.496 556.241 297.396C550.931 293.614 534.719 276.826 534.719 275.109C534.719 274.685 533.819 273.689 532.719 272.896C531.619 272.103 530.719 270.834 530.719 270.076C530.719 269.319 529.369 267.437 527.719 265.896C526.069 264.355 524.719 262.684 524.719 262.183C524.719 261.683 523.918 260.401 522.939 259.335C521.96 258.268 519.827 255.596 518.2 253.396C516.573 251.196 514.449 248.668 513.48 247.779C512.511 246.889 511.719 245.607 511.719 244.93C511.719 244.253 510.369 242.437 508.719 240.896C507.069 239.355 505.719 237.637 505.719 237.078C505.719 236.52 505.382 235.913 504.969 235.729C504.556 235.546 502.887 233.435 501.259 231.039C498.669 227.227 498.296 225.789 498.28 219.539C498.254 210.094 501.848 203.259 507.838 201.358C508.872 201.03 509.719 200.373 509.719 199.898C509.719 197.599 524.712 197.324 529.006 199.545Z" fill="black"></path>
</svg>